STARTFONT 2.1
COMMENT This font is a free software.
COMMENT Unlimited permission is granted to use, copy, and distribute it,
COMMENT with or without modification, either commercially and noncommercially.
COMMENT THIS FONT IS PROVIDED "AS IS" WITHOUT WARRANTY.
FONT -mplus-gothic-medium-R-normal--10-100-75-75-C-50-iso8859-1
SIZE 10 75 75
FONTBOUNDINGBOX 5 11 0 -2
STARTPROPERTIES 20
FONTNAME_REGISTRY ""
FOUNDRY "mplus"
FAMILY_NAME "gothic"
WEIGHT_NAME "medium"
SLANT "R"
SETWIDTH_NAME "normal"
ADD_STYLE_NAME ""
PIXEL_SIZE 10
POINT_SIZE 100
RESOLUTION_X 75
RESOLUTION_Y 75
SPACING "C"
AVERAGE_WIDTH 50
CHARSET_REGISTRY "iso8859"
CHARSET_ENCODING "1"
COPYRIGHT "Copyright (C) 2002-2004 COZ"
DEFAULT_CHAR 0
FONT_DESCENT 2
FONT_ASCENT 9
_XMBDFED_INFO "Edited with xmbdfed 4.5."
ENDPROPERTIES
CHARS 224
STARTCHAR 0x0000
ENCODING 0
SWIDTH 480 0
DWIDTH 5 0
BBX 5 11 0 -2
BITMAP
00
70
70
70
70
70
70
70
70
70
00
ENDCHAR
STARTCHAR 0x0001
ENCODING 1
SWIDTH 480 0
DWIDTH 5 0
BBX 5 11 0 -2
BITMAP
00
00
00
00
60
F0
60
00
00
00
00
ENDCHAR
STARTCHAR 0x0002
ENCODING 2
SWIDTH 480 0
DWIDTH 5 0
BBX 5 11 0 -2
BITMAP
00
50
A8
50
A8
50
A8
50
A8
50
A8
ENDCHAR
STARTCHAR 0x0003
ENCODING 3
SWIDTH 480 0
DWIDTH 5 0
BBX 5 11 0 -2
BITMAP
00
90
F0
90
90
00
F8
20
20
20
00
ENDCHAR
STARTCHAR 0x0004
ENCODING 4
SWIDTH 480 0
DWIDTH 5 0
BBX 5 11 0 -2
BITMAP
00
F0
80
F0
80
00
F0
80
F0
80
00
ENDCHAR
STARTCHAR 0x0005
ENCODING 5
SWIDTH 480 0
DWIDTH 5 0
BBX 5 11 0 -2
BITMAP
00
F0
90
80
F0
00
F0
90
E0
90
00
ENDCHAR
STARTCHAR 0x0006
ENCODING 6
SWIDTH 480 0
DWIDTH 5 0
BBX 5 11 0 -2
BITMAP
00
80
80
80
F0
00
F0
80
F0
80
00
ENDCHAR
STARTCHAR 0x0007
ENCODING 7
SWIDTH 480 0
DWIDTH 5 0
BBX 5 11 0 -2
BITMAP
00
60
90
90
60
00
00
00
00
00
00
ENDCHAR
STARTCHAR 0x0008
ENCODING 8
SWIDTH 480 0
DWIDTH 5 0
BBX 5 11 0 -2
BITMAP
00
00
40
40
F0
40
40
00
F0
00
00
ENDCHAR
STARTCHAR 0x0009
ENCODING 9
SWIDTH 480 0
DWIDTH 5 0
BBX 5 11 0 -2
BITMAP
00
90
D0
B0
90
00
80
80
80
F0
00
ENDCHAR
STARTCHAR 0x000A
ENCODING 10
SWIDTH 480 0
DWIDTH 5 0
BBX 5 11 0 -2
BITMAP
00
90
90
A0
C0
00
F8
20
20
20
00
ENDCHAR
STARTCHAR 0x000B
ENCODING 11
SWIDTH 480 0
DWIDTH 5 0
BBX 5 11 0 -2
BITMAP
20
20
20
20
20
E0
00
00
00
00
00
ENDCHAR
STARTCHAR 0x000C
ENCODING 12
SWIDTH 480 0
DWIDTH 5 0
BBX 5 11 0 -2
BITMAP
00
00
00
00
00
E0
20
20
20
20
20
ENDCHAR
STARTCHAR 0x000D
ENCODING 13
SWIDTH 480 0
DWIDTH 5 0
BBX 5 11 0 -2
BITMAP
00
00
00
00
00
38
20
20
20
20
20
ENDCHAR
STARTCHAR 0x000E
ENCODING 14
SWIDTH 480 0
DWIDTH 5 0
BBX 5 11 0 -2
BITMAP
20
20
20
20
20
38
00
00
00
00
00
ENDCHAR
STARTCHAR 0x000F
ENCODING 15
SWIDTH 480 0
DWIDTH 5 0
BBX 5 11 0 -2
BITMAP
20
20
20
20
20
F8
20
20
20
20
20
ENDCHAR
STARTCHAR 0x0010
ENCODING 16
SWIDTH 480 0
DWIDTH 5 0
BBX 5 11 0 -2
BITMAP
00
F8
00
00
00
00
00
00
00
00
00
ENDCHAR
STARTCHAR 0x0011
ENCODING 17
SWIDTH 480 0
DWIDTH 5 0
BBX 5 11 0 -2
BITMAP
00
00
00
F8
00
00
00
00
00
00
00
ENDCHAR
STARTCHAR 0x0012
ENCODING 18
SWIDTH 480 0
DWIDTH 5 0
BBX 5 11 0 -2
BITMAP
00
00
00
00
00
F8
00
00
00
00
00
ENDCHAR
STARTCHAR 0x0013
ENCODING 19
SWIDTH 480 0
DWIDTH 5 0
BBX 5 11 0 -2
BITMAP
00
00
00
00
00
00
00
F8
00
00
00
ENDCHAR
STARTCHAR 0x0014
ENCODING 20
SWIDTH 480 0
DWIDTH 5 0
BBX 5 11 0 -2
BITMAP
00
00
00
00
00
00
00
00
00
F8
00
ENDCHAR
STARTCHAR 0x0015
ENCODING 21
SWIDTH 480 0
DWIDTH 5 0
BBX 5 11 0 -2
BITMAP
20
20
20
20
20
38
20
20
20
20
20
ENDCHAR
STARTCHAR 0x0016
ENCODING 22
SWIDTH 480 0
DWIDTH 5 0
BBX 5 11 0 -2
BITMAP
20
20
20
20
20
E0
20
20
20
20
20
ENDCHAR
STARTCHAR 0x0017
ENCODING 23
SWIDTH 480 0
DWIDTH 5 0
BBX 5 11 0 -2
BITMAP
20
20
20
20
20
F8
00
00
00
00
00
ENDCHAR
STARTCHAR 0x0018
ENCODING 24
SWIDTH 480 0
DWIDTH 5 0
BBX 5 11 0 -2
BITMAP
00
00
00
00
00
F8
20
20
20
20
20
ENDCHAR
STARTCHAR 0x0019
ENCODING 25
SWIDTH 480 0
DWIDTH 5 0
BBX 5 11 0 -2
BITMAP
20
20
20
20
20
20
20
20
20
20
20
ENDCHAR
STARTCHAR 0x001A
ENCODING 26
SWIDTH 480 0
DWIDTH 5 0
BBX 5 11 0 -2
BITMAP
00
00
20
40
80
40
20
00
F0
00
00
ENDCHAR
STARTCHAR 0x001B
ENCODING 27
SWIDTH 480 0
DWIDTH 5 0
BBX 5 11 0 -2
BITMAP
00
00
40
20
10
20
40
00
F0
00
00
ENDCHAR
STARTCHAR 0x001C
ENCODING 28
SWIDTH 480 0
DWIDTH 5 0
BBX 5 11 0 -2
BITMAP
00
00
00
00
F0
50
50
90
90
00
00
ENDCHAR
STARTCHAR 0x001D
ENCODING 29
SWIDTH 480 0
DWIDTH 5 0
BBX 5 11 0 -2
BITMAP
00
00
20
20
F0
40
F0
40
40
00
00
ENDCHAR
STARTCHAR 0x001E
ENCODING 30
SWIDTH 480 0
DWIDTH 5 0
BBX 5 11 0 -2
BITMAP
00
00
30
40
40
F0
40
40
B0
00
00
ENDCHAR
STARTCHAR 0x001F
ENCODING 31
SWIDTH 480 0
DWIDTH 5 0
BBX 5 11 0 -2
BITMAP
00
00
00
00
00
20
00
00
00
00
00
ENDCHAR
STARTCHAR 0x0020
ENCODING 32
SWIDTH 480 0
DWIDTH 5 0
BBX 5 11 0 -2
BITMAP
00
00
00
00
00
00
00
00
00
00
00
ENDCHAR
STARTCHAR 0x0021
ENCODING 33
SWIDTH 480 0
DWIDTH 5 0
BBX 5 11 0 -2
BITMAP
00
00
20
20
20
20
20
00
20
00
00
ENDCHAR
STARTCHAR 0x0022
ENCODING 34
SWIDTH 480 0
DWIDTH 5 0
BBX 5 11 0 -2
BITMAP
00
50
50
50
50
00
00
00
00
00
00
ENDCHAR
STARTCHAR 0x0023
ENCODING 35
SWIDTH 480 0
DWIDTH 5 0
BBX 5 11 0 -2
BITMAP
00
00
50
50
F0
50
F0
50
50
00
00
ENDCHAR
STARTCHAR 0x0024
ENCODING 36
SWIDTH 480 0
DWIDTH 5 0
BBX 5 11 0 -2
BITMAP
00
00
20
70
A0
E0
70
50
E0
40
00
ENDCHAR
STARTCHAR 0x0025
ENCODING 37
SWIDTH 480 0
DWIDTH 5 0
BBX 5 11 0 -2
BITMAP
00
00
C0
C0
10
60
80
30
30
00
00
ENDCHAR
STARTCHAR 0x0026
ENCODING 38
SWIDTH 480 0
DWIDTH 5 0
BBX 5 11 0 -2
BITMAP
00
00
40
A0
A0
40
B0
A0
50
00
00
ENDCHAR
STARTCHAR 0x0027
ENCODING 39
SWIDTH 480 0
DWIDTH 5 0
BBX 5 11 0 -2
BITMAP
00
20
20
20
20
00
00
00
00
00
00
ENDCHAR
STARTCHAR 0x0028
ENCODING 40
SWIDTH 480 0
DWIDTH 5 0
BBX 5 11 0 -2
BITMAP
00
10
20
20
40
40
40
20
20
10
00
ENDCHAR
STARTCHAR 0x0029
ENCODING 41
SWIDTH 480 0
DWIDTH 5 0
BBX 5 11 0 -2
BITMAP
00
80
40
40
20
20
20
40
40
80
00
ENDCHAR
STARTCHAR 0x002A
ENCODING 42
SWIDTH 480 0
DWIDTH 5 0
BBX 5 11 0 -2
BITMAP
00
00
00
50
20
F0
20
50
00
00
00
ENDCHAR
STARTCHAR 0x002B
ENCODING 43
SWIDTH 480 0
DWIDTH 5 0
BBX 5 11 0 -2
BITMAP
00
00
00
20
20
F0
20
20
00
00
00
ENDCHAR
STARTCHAR 0x002C
ENCODING 44
SWIDTH 480 0
DWIDTH 5 0
BBX 5 11 0 -2
BITMAP
00
00
00
00
00
00
00
00
20
40
00
ENDCHAR
STARTCHAR 0x002D
ENCODING 45
SWIDTH 480 0
DWIDTH 5 0
BBX 5 11 0 -2
BITMAP
00
00
00
00
00
F0
00
00
00
00
00
ENDCHAR
STARTCHAR 0x002E
ENCODING 46
SWIDTH 480 0
DWIDTH 5 0
BBX 5 11 0 -2
BITMAP
00
00
00
00
00
00
00
00
40
00
00
ENDCHAR
STARTCHAR 0x002F
ENCODING 47
SWIDTH 480 0
DWIDTH 5 0
BBX 5 11 0 -2
BITMAP
00
00
10
10
20
20
40
40
80
80
00
ENDCHAR
STARTCHAR 0x0030
ENCODING 48
SWIDTH 480 0
DWIDTH 5 0
BBX 5 11 0 -2
BITMAP
00
00
60
90
B0
D0
90
90
60
00
00
ENDCHAR
STARTCHAR 0x0031
ENCODING 49
SWIDTH 480 0
DWIDTH 5 0
BBX 5 11 0 -2
BITMAP
00
00
20
60
A0
20
20
20
20
00
00
ENDCHAR
STARTCHAR 0x0032
ENCODING 50
SWIDTH 480 0
DWIDTH 5 0
BBX 5 11 0 -2
BITMAP
00
00
60
90
10
20
40
80
F0
00
00
ENDCHAR
STARTCHAR 0x0033
ENCODING 51
SWIDTH 480 0
DWIDTH 5 0
BBX 5 11 0 -2
BITMAP
00
00
F0
10
20
60
10
90
60
00
00
ENDCHAR
STARTCHAR 0x0034
ENCODING 52
SWIDTH 480 0
DWIDTH 5 0
BBX 5 11 0 -2
BITMAP
00
00
20
60
A0
A0
F0
20
20
00
00
ENDCHAR
STARTCHAR 0x0035
ENCODING 53
SWIDTH 480 0
DWIDTH 5 0
BBX 5 11 0 -2
BITMAP
00
00
F0
80
E0
10
10
90
60
00
00
ENDCHAR
STARTCHAR 0x0036
ENCODING 54
SWIDTH 480 0
DWIDTH 5 0
BBX 5 11 0 -2
BITMAP
00
00
60
80
E0
90
90
90
60
00
00
ENDCHAR
STARTCHAR 0x0037
ENCODING 55
SWIDTH 480 0
DWIDTH 5 0
BBX 5 11 0 -2
BITMAP
00
00
F0
10
20
20
40
40
40
00
00
ENDCHAR
STARTCHAR 0x0038
ENCODING 56
SWIDTH 480 0
DWIDTH 5 0
BBX 5 11 0 -2
BITMAP
00
00
60
90
90
60
90
90
60
00
00
ENDCHAR
STARTCHAR 0x0039
ENCODING 57
SWIDTH 480 0
DWIDTH 5 0
BBX 5 11 0 -2
BITMAP
00
00
60
90
90
90
70
10
60
00
00
ENDCHAR
STARTCHAR 0x003A
ENCODING 58
SWIDTH 480 0
DWIDTH 5 0
BBX 5 11 0 -2
BITMAP
00
00
00
00
20
00
00
20
00
00
00
ENDCHAR
STARTCHAR 0x003B
ENCODING 59
SWIDTH 480 0
DWIDTH 5 0
BBX 5 11 0 -2
BITMAP
00
00
00
00
20
00
00
20
40
00
00
ENDCHAR
STARTCHAR 0x003C
ENCODING 60
SWIDTH 480 0
DWIDTH 5 0
BBX 5 11 0 -2
BITMAP
00
00
10
20
40
80
40
20
10
00
00
ENDCHAR
STARTCHAR 0x003D
ENCODING 61
SWIDTH 480 0
DWIDTH 5 0
BBX 5 11 0 -2
BITMAP
00
00
00
00
F0
00
F0
00
00
00
00
ENDCHAR
STARTCHAR 0x003E
ENCODING 62
SWIDTH 480 0
DWIDTH 5 0
BBX 5 11 0 -2
BITMAP
00
00
80
40
20
10
20
40
80
00
00
ENDCHAR
STARTCHAR 0x003F
ENCODING 63
SWIDTH 480 0
DWIDTH 5 0
BBX 5 11 0 -2
BITMAP
00
00
E0
10
10
20
40
00
40
00
00
ENDCHAR
STARTCHAR 0x0040
ENCODING 64
SWIDTH 480 0
DWIDTH 5 0
BBX 5 11 0 -2
BITMAP
00
00
60
90
B0
A0
B0
80
70
00
00
ENDCHAR
STARTCHAR 0x0041
ENCODING 65
SWIDTH 480 0
DWIDTH 5 0
BBX 5 11 0 -2
BITMAP
00
00
60
90
90
F0
90
90
90
00
00
ENDCHAR
STARTCHAR 0x0042
ENCODING 66
SWIDTH 480 0
DWIDTH 5 0
BBX 5 11 0 -2
BITMAP
00
00
E0
90
90
E0
90
90
E0
00
00
ENDCHAR
STARTCHAR 0x0043
ENCODING 67
SWIDTH 480 0
DWIDTH 5 0
BBX 5 11 0 -2
BITMAP
00
00
60
90
80
80
80
80
70
00
00
ENDCHAR
STARTCHAR 0x0044
ENCODING 68
SWIDTH 480 0
DWIDTH 5 0
BBX 5 11 0 -2
BITMAP
00
00
E0
90
90
90
90
90
E0
00
00
ENDCHAR
STARTCHAR 0x0045
ENCODING 69
SWIDTH 480 0
DWIDTH 5 0
BBX 5 11 0 -2
BITMAP
00
00
F0
80
80
E0
80
80
F0
00
00
ENDCHAR
STARTCHAR 0x0046
ENCODING 70
SWIDTH 480 0
DWIDTH 5 0
BBX 5 11 0 -2
BITMAP
00
00
F0
80
80
E0
80
80
80
00
00
ENDCHAR
STARTCHAR 0x0047
ENCODING 71
SWIDTH 480 0
DWIDTH 5 0
BBX 5 11 0 -2
BITMAP
00
00
70
80
80
B0
90
90
70
00
00
ENDCHAR
STARTCHAR 0x0048
ENCODING 72
SWIDTH 480 0
DWIDTH 5 0
BBX 5 11 0 -2
BITMAP
00
00
90
90
90
F0
90
90
90
00
00
ENDCHAR
STARTCHAR 0x0049
ENCODING 73
SWIDTH 480 0
DWIDTH 5 0
BBX 5 11 0 -2
BITMAP
00
00
70
20
20
20
20
20
70
00
00
ENDCHAR
STARTCHAR 0x004A
ENCODING 74
SWIDTH 480 0
DWIDTH 5 0
BBX 5 11 0 -2
BITMAP
00
00
10
10
10
10
90
90
60
00
00
ENDCHAR
STARTCHAR 0x004B
ENCODING 75
SWIDTH 480 0
DWIDTH 5 0
BBX 5 11 0 -2
BITMAP
00
00
90
A0
C0
C0
A0
90
90
00
00
ENDCHAR
STARTCHAR 0x004C
ENCODING 76
SWIDTH 480 0
DWIDTH 5 0
BBX 5 11 0 -2
BITMAP
00
00
80
80
80
80
80
80
F0
00
00
ENDCHAR
STARTCHAR 0x004D
ENCODING 77
SWIDTH 480 0
DWIDTH 5 0
BBX 5 11 0 -2
BITMAP
00
00
90
B0
D0
90
90
90
90
00
00
ENDCHAR
STARTCHAR 0x004E
ENCODING 78
SWIDTH 480 0
DWIDTH 5 0
BBX 5 11 0 -2
BITMAP
00
00
90
D0
B0
90
90
90
90
00
00
ENDCHAR
STARTCHAR 0x004F
ENCODING 79
SWIDTH 480 0
DWIDTH 5 0
BBX 5 11 0 -2
BITMAP
00
00
60
90
90
90
90
90
60
00
00
ENDCHAR
STARTCHAR 0x0050
ENCODING 80
SWIDTH 480 0
DWIDTH 5 0
BBX 5 11 0 -2
BITMAP
00
00
E0
90
90
90
E0
80
80
00
00
ENDCHAR
STARTCHAR 0x0051
ENCODING 81
SWIDTH 480 0
DWIDTH 5 0
BBX 5 11 0 -2
BITMAP
00
00
60
90
90
90
90
90
60
40
30
ENDCHAR
STARTCHAR 0x0052
ENCODING 82
SWIDTH 480 0
DWIDTH 5 0
BBX 5 11 0 -2
BITMAP
00
00
E0
90
90
E0
90
90
90
00
00
ENDCHAR
STARTCHAR 0x0053
ENCODING 83
SWIDTH 480 0
DWIDTH 5 0
BBX 5 11 0 -2
BITMAP
00
00
70
80
80
60
10
10
E0
00
00
ENDCHAR
STARTCHAR 0x0054
ENCODING 84
SWIDTH 480 0
DWIDTH 5 0
BBX 5 11 0 -2
BITMAP
00
00
F8
20
20
20
20
20
20
00
00
ENDCHAR
STARTCHAR 0x0055
ENCODING 85
SWIDTH 480 0
DWIDTH 5 0
BBX 5 11 0 -2
BITMAP
00
00
90
90
90
90
90
90
60
00
00
ENDCHAR
STARTCHAR 0x0056
ENCODING 86
SWIDTH 480 0
DWIDTH 5 0
BBX 5 11 0 -2
BITMAP
00
00
90
90
90
90
90
A0
C0
00
00
ENDCHAR
STARTCHAR 0x0057
ENCODING 87
SWIDTH 480 0
DWIDTH 5 0
BBX 5 11 0 -2
BITMAP
00
00
90
90
90
90
D0
B0
90
00
00
ENDCHAR
STARTCHAR 0x0058
ENCODING 88
SWIDTH 480 0
DWIDTH 5 0
BBX 5 11 0 -2
BITMAP
00
00
90
90
90
60
90
90
90
00
00
ENDCHAR
STARTCHAR 0x0059
ENCODING 89
SWIDTH 480 0
DWIDTH 5 0
BBX 5 11 0 -2
BITMAP
00
00
90
90
90
A0
40
40
40
00
00
ENDCHAR
STARTCHAR 0x005A
ENCODING 90
SWIDTH 480 0
DWIDTH 5 0
BBX 5 11 0 -2
BITMAP
00
00
F0
10
20
40
80
80
F0
00
00
ENDCHAR
STARTCHAR 0x005B
ENCODING 91
SWIDTH 480 0
DWIDTH 5 0
BBX 5 11 0 -2
BITMAP
00
70
40
40
40
40
40
40
40
70
00
ENDCHAR
STARTCHAR 0x005C
ENCODING 92
SWIDTH 480 0
DWIDTH 5 0
BBX 5 11 0 -2
BITMAP
00
00
80
80
40
40
20
20
10
10
00
ENDCHAR
STARTCHAR 0x005D
ENCODING 93
SWIDTH 480 0
DWIDTH 5 0
BBX 5 11 0 -2
BITMAP
00
E0
20
20
20
20
20
20
20
E0
00
ENDCHAR
STARTCHAR 0x005E
ENCODING 94
SWIDTH 480 0
DWIDTH 5 0
BBX 5 11 0 -2
BITMAP
00
20
50
88
00
00
00
00
00
00
00
ENDCHAR
STARTCHAR 0x005F
ENCODING 95
SWIDTH 480 0
DWIDTH 5 0
BBX 5 11 0 -2
BITMAP
00
00
00
00
00
00
00
00
00
F0
00
ENDCHAR
STARTCHAR 0x0060
ENCODING 96
SWIDTH 480 0
DWIDTH 5 0
BBX 5 11 0 -2
BITMAP
00
40
40
20
20
00
00
00
00
00
00
ENDCHAR
STARTCHAR 0x0061
ENCODING 97
SWIDTH 480 0
DWIDTH 5 0
BBX 5 11 0 -2
BITMAP
00
00
00
00
60
10
70
90
70
00
00
ENDCHAR
STARTCHAR 0x0062
ENCODING 98
SWIDTH 480 0
DWIDTH 5 0
BBX 5 11 0 -2
BITMAP
00
00
80
80
E0
90
90
90
E0
00
00
ENDCHAR
STARTCHAR 0x0063
ENCODING 99
SWIDTH 480 0
DWIDTH 5 0
BBX 5 11 0 -2
BITMAP
00
00
00
00
60
90
80
80
70
00
00
ENDCHAR
STARTCHAR 0x0064
ENCODING 100
SWIDTH 480 0
DWIDTH 5 0
BBX 5 11 0 -2
BITMAP
00
00
10
10
70
90
90
90
70
00
00
ENDCHAR
STARTCHAR 0x0065
ENCODING 101
SWIDTH 480 0
DWIDTH 5 0
BBX 5 11 0 -2
BITMAP
00
00
00
00
60
90
F0
80
70
00
00
ENDCHAR
STARTCHAR 0x0066
ENCODING 102
SWIDTH 480 0
DWIDTH 5 0
BBX 5 11 0 -2
BITMAP
00
00
30
40
40
F0
40
40
40
00
00
ENDCHAR
STARTCHAR 0x0067
ENCODING 103
SWIDTH 480 0
DWIDTH 5 0
BBX 5 11 0 -2
BITMAP
00
00
00
00
70
90
90
90
70
10
60
ENDCHAR
STARTCHAR 0x0068
ENCODING 104
SWIDTH 480 0
DWIDTH 5 0
BBX 5 11 0 -2
BITMAP
00
00
80
80
E0
90
90
90
90
00
00
ENDCHAR
STARTCHAR 0x0069
ENCODING 105
SWIDTH 480 0
DWIDTH 5 0
BBX 5 11 0 -2
BITMAP
00
20
00
00
60
20
20
20
70
00
00
ENDCHAR
STARTCHAR 0x006A
ENCODING 106
SWIDTH 480 0
DWIDTH 5 0
BBX 5 11 0 -2
BITMAP
00
20
00
00
60
20
20
20
20
20
C0
ENDCHAR
STARTCHAR 0x006B
ENCODING 107
SWIDTH 480 0
DWIDTH 5 0
BBX 5 11 0 -2
BITMAP
00
00
80
80
90
A0
C0
A0
90
00
00
ENDCHAR
STARTCHAR 0x006C
ENCODING 108
SWIDTH 480 0
DWIDTH 5 0
BBX 5 11 0 -2
BITMAP
00
00
60
20
20
20
20
20
30
00
00
ENDCHAR
STARTCHAR 0x006D
ENCODING 109
SWIDTH 480 0
DWIDTH 5 0
BBX 5 11 0 -2
BITMAP
00
00
00
00
F0
A8
A8
A8
A8
00
00
ENDCHAR
STARTCHAR 0x006E
ENCODING 110
SWIDTH 480 0
DWIDTH 5 0
BBX 5 11 0 -2
BITMAP
00
00
00
00
E0
90
90
90
90
00
00
ENDCHAR
STARTCHAR 0x006F
ENCODING 111
SWIDTH 480 0
DWIDTH 5 0
BBX 5 11 0 -2
BITMAP
00
00
00
00
60
90
90
90
60
00
00
ENDCHAR
STARTCHAR 0x0070
ENCODING 112
SWIDTH 480 0
DWIDTH 5 0
BBX 5 11 0 -2
BITMAP
00
00
00
00
E0
90
90
90
E0
80
80
ENDCHAR
STARTCHAR 0x0071
ENCODING 113
SWIDTH 480 0
DWIDTH 5 0
BBX 5 11 0 -2
BITMAP
00
00
00
00
70
90
90
90
70
10
10
ENDCHAR
STARTCHAR 0x0072
ENCODING 114
SWIDTH 480 0
DWIDTH 5 0
BBX 5 11 0 -2
BITMAP
00
00
00
00
B0
C0
80
80
80
00
00
ENDCHAR
STARTCHAR 0x0073
ENCODING 115
SWIDTH 480 0
DWIDTH 5 0
BBX 5 11 0 -2
BITMAP
00
00
00
00
70
80
60
10
E0
00
00
ENDCHAR
STARTCHAR 0x0074
ENCODING 116
SWIDTH 480 0
DWIDTH 5 0
BBX 5 11 0 -2
BITMAP
00
00
40
40
F0
40
40
40
30
00
00
ENDCHAR
STARTCHAR 0x0075
ENCODING 117
SWIDTH 480 0
DWIDTH 5 0
BBX 5 11 0 -2
BITMAP
00
00
00
00
90
90
90
90
70
00
00
ENDCHAR
STARTCHAR 0x0076
ENCODING 118
SWIDTH 480 0
DWIDTH 5 0
BBX 5 11 0 -2
BITMAP
00
00
00
00
90
90
90
A0
C0
00
00
ENDCHAR
STARTCHAR 0x0077
ENCODING 119
SWIDTH 480 0
DWIDTH 5 0
BBX 5 11 0 -2
BITMAP
00
00
00
00
90
90
D0
B0
90
00
00
ENDCHAR
STARTCHAR 0x0078
ENCODING 120
SWIDTH 480 0
DWIDTH 5 0
BBX 5 11 0 -2
BITMAP
00
00
00
00
90
90
60
90
90
00
00
ENDCHAR
STARTCHAR 0x0079
ENCODING 121
SWIDTH 480 0
DWIDTH 5 0
BBX 5 11 0 -2
BITMAP
00
00
00
00
90
90
90
90
70
10
60
ENDCHAR
STARTCHAR 0x007A
ENCODING 122
SWIDTH 480 0
DWIDTH 5 0
BBX 5 11 0 -2
BITMAP
00
00
00
00
F0
20
40
80
F0
00
00
ENDCHAR
STARTCHAR 0x007B
ENCODING 123
SWIDTH 480 0
DWIDTH 5 0
BBX 5 11 0 -2
BITMAP
00
30
40
40
40
80
40
40
40
30
00
ENDCHAR
STARTCHAR 0x007C
ENCODING 124
SWIDTH 480 0
DWIDTH 5 0
BBX 5 11 0 -2
BITMAP
00
20
20
20
20
20
20
20
20
20
00
ENDCHAR
STARTCHAR 0x007D
ENCODING 125
SWIDTH 480 0
DWIDTH 5 0
BBX 5 11 0 -2
BITMAP
00
C0
20
20
20
10
20
20
20
C0
00
ENDCHAR
STARTCHAR 0x007E
ENCODING 126
SWIDTH 480 0
DWIDTH 5 0
BBX 5 11 0 -2
BITMAP
00
00
50
A0
00
00
00
00
00
00
00
ENDCHAR
STARTCHAR 0x007F
ENCODING 127
SWIDTH 480 0
DWIDTH 5 0
BBX 5 11 0 -2
BITMAP
00
00
00
00
00
00
00
00
00
00
00
ENDCHAR
STARTCHAR 0x00A0
ENCODING 160
SWIDTH 480 0
DWIDTH 5 0
BBX 5 11 0 -2
BITMAP
00
00
00
00
00
00
00
00
00
00
00
ENDCHAR
STARTCHAR 0x00A1
ENCODING 161
SWIDTH 480 0
DWIDTH 5 0
BBX 5 11 0 -2
BITMAP
00
00
20
00
20
20
20
20
20
00
00
ENDCHAR
STARTCHAR 0x00A2
ENCODING 162
SWIDTH 480 0
DWIDTH 5 0
BBX 5 11 0 -2
BITMAP
00
00
20
20
70
A0
A0
A0
70
20
00
ENDCHAR
STARTCHAR 0x00A3
ENCODING 163
SWIDTH 480 0
DWIDTH 5 0
BBX 5 11 0 -2
BITMAP
00
00
30
40
40
F0
40
40
B0
00
00
ENDCHAR
STARTCHAR 0x00A4
ENCODING 164
SWIDTH 480 0
DWIDTH 5 0
BBX 5 11 0 -2
BITMAP
00
00
00
90
60
60
60
90
00
00
00
ENDCHAR
STARTCHAR 0x00A5
ENCODING 165
SWIDTH 480 0
DWIDTH 5 0
BBX 5 11 0 -2
BITMAP
00
00
90
A0
40
F0
40
F0
40
00
00
ENDCHAR
STARTCHAR 0x00A6
ENCODING 166
SWIDTH 480 0
DWIDTH 5 0
BBX 5 11 0 -2
BITMAP
00
20
20
20
20
00
20
20
20
20
00
ENDCHAR
STARTCHAR 0x00A7
ENCODING 167
SWIDTH 480 0
DWIDTH 5 0
BBX 5 11 0 -2
BITMAP
00
60
90
80
60
90
60
10
90
60
00
ENDCHAR
STARTCHAR 0x00A8
ENCODING 168
SWIDTH 480 0
DWIDTH 5 0
BBX 5 11 0 -2
BITMAP
00
00
50
00
00
00
00
00
00
00
00
ENDCHAR
STARTCHAR 0x00A9
ENCODING 169
SWIDTH 480 0
DWIDTH 5 0
BBX 5 11 0 -2
BITMAP
00
00
F0
90
60
40
60
90
F0
00
00
ENDCHAR
STARTCHAR 0x00AA
ENCODING 170
SWIDTH 480 0
DWIDTH 5 0
BBX 5 11 0 -2
BITMAP
00
00
60
10
70
90
70
00
F0
00
00
ENDCHAR
STARTCHAR 0x00AB
ENCODING 171
SWIDTH 480 0
DWIDTH 5 0
BBX 5 11 0 -2
BITMAP
00
00
10
20
50
A0
50
20
10
00
00
ENDCHAR
STARTCHAR 0x00AC
ENCODING 172
SWIDTH 480 0
DWIDTH 5 0
BBX 5 11 0 -2
BITMAP
00
00
00
00
00
F0
10
10
00
00
00
ENDCHAR
STARTCHAR 0x00AD
ENCODING 173
SWIDTH 480 0
DWIDTH 5 0
BBX 5 11 0 -2
BITMAP
00
00
00
00
00
70
00
00
00
00
00
ENDCHAR
STARTCHAR 0x00AE
ENCODING 174
SWIDTH 480 0
DWIDTH 5 0
BBX 5 11 0 -2
BITMAP
00
00
F0
90
60
40
40
90
F0
00
00
ENDCHAR
STARTCHAR 0x00AF
ENCODING 175
SWIDTH 480 0
DWIDTH 5 0
BBX 5 11 0 -2
BITMAP
00
00
70
00
00
00
00
00
00
00
00
ENDCHAR
STARTCHAR 0x00B0
ENCODING 176
SWIDTH 480 0
DWIDTH 5 0
BBX 5 11 0 -2
BITMAP
00
60
90
90
60
00
00
00
00
00
00
ENDCHAR
STARTCHAR 0x00B1
ENCODING 177
SWIDTH 480 0
DWIDTH 5 0
BBX 5 11 0 -2
BITMAP
00
00
40
40
F0
40
40
00
F0
00
00
ENDCHAR
STARTCHAR 0x00B2
ENCODING 178
SWIDTH 480 0
DWIDTH 5 0
BBX 5 11 0 -2
BITMAP
00
C0
20
40
80
E0
00
00
00
00
00
ENDCHAR
STARTCHAR 0x00B3
ENCODING 179
SWIDTH 480 0
DWIDTH 5 0
BBX 5 11 0 -2
BITMAP
00
E0
20
40
20
C0
00
00
00
00
00
ENDCHAR
STARTCHAR 0x00B4
ENCODING 180
SWIDTH 480 0
DWIDTH 5 0
BBX 5 11 0 -2
BITMAP
20
40
00
00
00
00
00
00
00
00
00
ENDCHAR
STARTCHAR 0x00B5
ENCODING 181
SWIDTH 480 0
DWIDTH 5 0
BBX 5 11 0 -2
BITMAP
00
00
00
00
90
90
90
B0
D0
80
80
ENDCHAR
STARTCHAR 0x00B6
ENCODING 182
SWIDTH 480 0
DWIDTH 5 0
BBX 5 11 0 -2
BITMAP
00
00
F0
D0
D0
D0
50
50
50
00
00
ENDCHAR
STARTCHAR 0x00B7
ENCODING 183
SWIDTH 480 0
DWIDTH 5 0
BBX 5 11 0 -2
BITMAP
00
00
00
00
00
20
00
00
00
00
00
ENDCHAR
STARTCHAR 0x00B8
ENCODING 184
SWIDTH 480 0
DWIDTH 5 0
BBX 5 11 0 -2
BITMAP
00
00
00
00
00
00
00
00
10
20
40
ENDCHAR
STARTCHAR 0x00B9
ENCODING 185
SWIDTH 480 0
DWIDTH 5 0
BBX 5 11 0 -2
BITMAP
00
40
C0
40
40
40
00
00
00
00
00
ENDCHAR
STARTCHAR 0x00BA
ENCODING 186
SWIDTH 480 0
DWIDTH 5 0
BBX 5 11 0 -2
BITMAP
00
60
90
90
60
00
F0
00
00
00
00
ENDCHAR
STARTCHAR 0x00BB
ENCODING 187
SWIDTH 480 0
DWIDTH 5 0
BBX 5 11 0 -2
BITMAP
00
00
80
40
A0
50
A0
40
80
00
00
ENDCHAR
STARTCHAR 0x00BC
ENCODING 188
SWIDTH 480 0
DWIDTH 5 0
BBX 5 11 0 -2
BITMAP
00
40
C0
40
40
30
50
70
10
00
00
ENDCHAR
STARTCHAR 0x00BD
ENCODING 189
SWIDTH 480 0
DWIDTH 5 0
BBX 5 11 0 -2
BITMAP
00
40
C0
40
40
70
10
20
70
00
00
ENDCHAR
STARTCHAR 0x00BE
ENCODING 190
SWIDTH 480 0
DWIDTH 5 0
BBX 5 11 0 -2
BITMAP
00
E0
40
20
C0
30
50
70
10
00
00
ENDCHAR
STARTCHAR 0x00BF
ENCODING 191
SWIDTH 480 0
DWIDTH 5 0
BBX 5 11 0 -2
BITMAP
00
00
20
00
20
40
80
80
70
00
00
ENDCHAR
STARTCHAR 0x00C0
ENCODING 192
SWIDTH 480 0
DWIDTH 5 0
BBX 5 11 0 -2
BITMAP
40
20
00
60
90
90
F0
90
90
00
00
ENDCHAR
STARTCHAR 0x00C1
ENCODING 193
SWIDTH 480 0
DWIDTH 5 0
BBX 5 11 0 -2
BITMAP
20
40
00
60
90
90
F0
90
90
00
00
ENDCHAR
STARTCHAR 0x00C2
ENCODING 194
SWIDTH 480 0
DWIDTH 5 0
BBX 5 11 0 -2
BITMAP
60
90
00
60
90
90
F0
90
90
00
00
ENDCHAR
STARTCHAR 0x00C3
ENCODING 195
SWIDTH 480 0
DWIDTH 5 0
BBX 5 11 0 -2
BITMAP
50
A0
00
60
90
90
F0
90
90
00
00
ENDCHAR
STARTCHAR 0x00C4
ENCODING 196
SWIDTH 480 0
DWIDTH 5 0
BBX 5 11 0 -2
BITMAP
50
50
00
60
90
90
F0
90
90
00
00
ENDCHAR
STARTCHAR 0x00C5
ENCODING 197
SWIDTH 480 0
DWIDTH 5 0
BBX 5 11 0 -2
BITMAP
60
90
90
60
90
90
F0
90
90
00
00
ENDCHAR
STARTCHAR 0x00C6
ENCODING 198
SWIDTH 480 0
DWIDTH 5 0
BBX 5 11 0 -2
BITMAP
00
00
F0
A0
A0
F0
A0
A0
B0
00
00
ENDCHAR
STARTCHAR 0x00C7
ENCODING 199
SWIDTH 480 0
DWIDTH 5 0
BBX 5 11 0 -2
BITMAP
00
00
60
90
80
80
80
80
70
20
40
ENDCHAR
STARTCHAR 0x00C8
ENCODING 200
SWIDTH 480 0
DWIDTH 5 0
BBX 5 11 0 -2
BITMAP
40
20
00
F0
80
E0
80
80
F0
00
00
ENDCHAR
STARTCHAR 0x00C9
ENCODING 201
SWIDTH 480 0
DWIDTH 5 0
BBX 5 11 0 -2
BITMAP
20
40
00
F0
80
E0
80
80
F0
00
00
ENDCHAR
STARTCHAR 0x00CA
ENCODING 202
SWIDTH 480 0
DWIDTH 5 0
BBX 5 11 0 -2
BITMAP
60
90
00
F0
80
E0
80
80
F0
00
00
ENDCHAR
STARTCHAR 0x00CB
ENCODING 203
SWIDTH 480 0
DWIDTH 5 0
BBX 5 11 0 -2
BITMAP
50
50
00
F0
80
E0
80
80
F0
00
00
ENDCHAR
STARTCHAR 0x00CC
ENCODING 204
SWIDTH 480 0
DWIDTH 5 0
BBX 5 11 0 -2
BITMAP
20
10
00
70
20
20
20
20
70
00
00
ENDCHAR
STARTCHAR 0x00CD
ENCODING 205
SWIDTH 480 0
DWIDTH 5 0
BBX 5 11 0 -2
BITMAP
10
20
00
70
20
20
20
20
70
00
00
ENDCHAR
STARTCHAR 0x00CE
ENCODING 206
SWIDTH 480 0
DWIDTH 5 0
BBX 5 11 0 -2
BITMAP
60
90
00
70
20
20
20
20
70
00
00
ENDCHAR
STARTCHAR 0x00CF
ENCODING 207
SWIDTH 480 0
DWIDTH 5 0
BBX 5 11 0 -2
BITMAP
50
50
00
70
20
20
20
20
70
00
00
ENDCHAR
STARTCHAR 0x00D0
ENCODING 208
SWIDTH 480 0
DWIDTH 5 0
BBX 5 11 0 -2
BITMAP
00
00
E0
50
50
F0
50
50
E0
00
00
ENDCHAR
STARTCHAR 0x00D1
ENCODING 209
SWIDTH 480 0
DWIDTH 5 0
BBX 5 11 0 -2
BITMAP
50
A0
00
90
D0
B0
90
90
90
00
00
ENDCHAR
STARTCHAR 0x00D2
ENCODING 210
SWIDTH 480 0
DWIDTH 5 0
BBX 5 11 0 -2
BITMAP
40
20
00
60
90
90
90
90
60
00
00
ENDCHAR
STARTCHAR 0x00D3
ENCODING 211
SWIDTH 480 0
DWIDTH 5 0
BBX 5 11 0 -2
BITMAP
20
40
00
60
90
90
90
90
60
00
00
ENDCHAR
STARTCHAR 0x00D4
ENCODING 212
SWIDTH 480 0
DWIDTH 5 0
BBX 5 11 0 -2
BITMAP
60
90
00
60
90
90
90
90
60
00
00
ENDCHAR
STARTCHAR 0x00D5
ENCODING 213
SWIDTH 480 0
DWIDTH 5 0
BBX 5 11 0 -2
BITMAP
50
A0
00
60
90
90
90
90
60
00
00
ENDCHAR
STARTCHAR 0x00D6
ENCODING 214
SWIDTH 480 0
DWIDTH 5 0
BBX 5 11 0 -2
BITMAP
50
50
00
60
90
90
90
90
60
00
00
ENDCHAR
STARTCHAR 0x00D7
ENCODING 215
SWIDTH 480 0
DWIDTH 5 0
BBX 5 11 0 -2
BITMAP
00
00
00
90
90
60
90
90
00
00
00
ENDCHAR
STARTCHAR 0x00D8
ENCODING 216
SWIDTH 480 0
DWIDTH 5 0
BBX 5 11 0 -2
BITMAP
00
10
60
90
B0
D0
90
90
60
80
00
ENDCHAR
STARTCHAR 0x00D9
ENCODING 217
SWIDTH 480 0
DWIDTH 5 0
BBX 5 11 0 -2
BITMAP
40
20
00
90
90
90
90
90
60
00
00
ENDCHAR
STARTCHAR 0x00DA
ENCODING 218
SWIDTH 480 0
DWIDTH 5 0
BBX 5 11 0 -2
BITMAP
20
40
00
90
90
90
90
90
60
00
00
ENDCHAR
STARTCHAR 0x00DB
ENCODING 219
SWIDTH 480 0
DWIDTH 5 0
BBX 5 11 0 -2
BITMAP
60
90
00
90
90
90
90
90
60
00
00
ENDCHAR
STARTCHAR 0x00DC
ENCODING 220
SWIDTH 480 0
DWIDTH 5 0
BBX 5 11 0 -2
BITMAP
50
50
00
90
90
90
90
90
60
00
00
ENDCHAR
STARTCHAR 0x00DD
ENCODING 221
SWIDTH 480 0
DWIDTH 5 0
BBX 5 11 0 -2
BITMAP
20
40
00
90
90
A0
40
40
40
00
00
ENDCHAR
STARTCHAR 0x00DE
ENCODING 222
SWIDTH 480 0
DWIDTH 5 0
BBX 5 11 0 -2
BITMAP
00
80
E0
90
90
90
E0
80
80
00
00
ENDCHAR
STARTCHAR 0x00DF
ENCODING 223
SWIDTH 480 0
DWIDTH 5 0
BBX 5 11 0 -2
BITMAP
00
00
60
90
90
E0
90
90
E0
80
80
ENDCHAR
STARTCHAR 0x00E0
ENCODING 224
SWIDTH 480 0
DWIDTH 5 0
BBX 5 11 0 -2
BITMAP
40
20
00
00
60
10
70
90
70
00
00
ENDCHAR
STARTCHAR 0x00E1
ENCODING 225
SWIDTH 480 0
DWIDTH 5 0
BBX 5 11 0 -2
BITMAP
20
40
00
00
60
10
70
90
70
00
00
ENDCHAR
STARTCHAR 0x00E2
ENCODING 226
SWIDTH 480 0
DWIDTH 5 0
BBX 5 11 0 -2
BITMAP
60
90
00
00
60
10
70
90
70
00
00
ENDCHAR
STARTCHAR 0x00E3
ENCODING 227
SWIDTH 480 0
DWIDTH 5 0
BBX 5 11 0 -2
BITMAP
50
A0
00
00
60
10
70
90
70
00
00
ENDCHAR
STARTCHAR 0x00E4
ENCODING 228
SWIDTH 480 0
DWIDTH 5 0
BBX 5 11 0 -2
BITMAP
50
50
00
00
60
10
70
90
70
00
00
ENDCHAR
STARTCHAR 0x00E5
ENCODING 229
SWIDTH 480 0
DWIDTH 5 0
BBX 5 11 0 -2
BITMAP
60
90
60
00
60
10
70
90
70
00
00
ENDCHAR
STARTCHAR 0x00E6
ENCODING 230
SWIDTH 480 0
DWIDTH 5 0
BBX 5 11 0 -2
BITMAP
00
00
00
00
F0
20
70
A0
F0
00
00
ENDCHAR
STARTCHAR 0x00E7
ENCODING 231
SWIDTH 480 0
DWIDTH 5 0
BBX 5 11 0 -2
BITMAP
00
00
00
00
60
90
80
80
70
20
40
ENDCHAR
STARTCHAR 0x00E8
ENCODING 232
SWIDTH 480 0
DWIDTH 5 0
BBX 5 11 0 -2
BITMAP
40
20
00
00
60
90
F0
80
70
00
00
ENDCHAR
STARTCHAR 0x00E9
ENCODING 233
SWIDTH 480 0
DWIDTH 5 0
BBX 5 11 0 -2
BITMAP
20
40
00
00
60
90
F0
80
70
00
00
ENDCHAR
STARTCHAR 0x00EA
ENCODING 234
SWIDTH 480 0
DWIDTH 5 0
BBX 5 11 0 -2
BITMAP
60
90
00
00
60
90
F0
80
70
00
00
ENDCHAR
STARTCHAR 0x00EB
ENCODING 235
SWIDTH 480 0
DWIDTH 5 0
BBX 5 11 0 -2
BITMAP
50
50
00
00
60
90
F0
80
70
00
00
ENDCHAR
STARTCHAR 0x00EC
ENCODING 236
SWIDTH 480 0
DWIDTH 5 0
BBX 5 11 0 -2
BITMAP
20
10
00
00
60
20
20
20
70
00
00
ENDCHAR
STARTCHAR 0x00ED
ENCODING 237
SWIDTH 480 0
DWIDTH 5 0
BBX 5 11 0 -2
BITMAP
10
20
00
00
60
20
20
20
70
00
00
ENDCHAR
STARTCHAR 0x00EE
ENCODING 238
SWIDTH 480 0
DWIDTH 5 0
BBX 5 11 0 -2
BITMAP
60
90
00
00
60
20
20
20
70
00
00
ENDCHAR
STARTCHAR 0x00EF
ENCODING 239
SWIDTH 480 0
DWIDTH 5 0
BBX 5 11 0 -2
BITMAP
50
50
00
00
60
20
20
20
70
00
00
ENDCHAR
STARTCHAR 0x00F0
ENCODING 240
SWIDTH 480 0
DWIDTH 5 0
BBX 5 11 0 -2
BITMAP
80
70
C0
20
60
90
90
90
60
00
00
ENDCHAR
STARTCHAR 0x00F1
ENCODING 241
SWIDTH 480 0
DWIDTH 5 0
BBX 5 11 0 -2
BITMAP
50
A0
00
00
E0
90
90
90
90
00
00
ENDCHAR
STARTCHAR 0x00F2
ENCODING 242
SWIDTH 480 0
DWIDTH 5 0
BBX 5 11 0 -2
BITMAP
40
20
00
00
60
90
90
90
60
00
00
ENDCHAR
STARTCHAR 0x00F3
ENCODING 243
SWIDTH 480 0
DWIDTH 5 0
BBX 5 11 0 -2
BITMAP
20
40
00
00
60
90
90
90
60
00
00
ENDCHAR
STARTCHAR 0x00F4
ENCODING 244
SWIDTH 480 0
DWIDTH 5 0
BBX 5 11 0 -2
BITMAP
60
90
00
00
60
90
90
90
60
00
00
ENDCHAR
STARTCHAR 0x00F5
ENCODING 245
SWIDTH 480 0
DWIDTH 5 0
BBX 5 11 0 -2
BITMAP
50
A0
00
00
60
90
90
90
60
00
00
ENDCHAR
STARTCHAR 0x00F6
ENCODING 246
SWIDTH 480 0
DWIDTH 5 0
BBX 5 11 0 -2
BITMAP
50
50
00
00
60
90
90
90
60
00
00
ENDCHAR
STARTCHAR 0x00F7
ENCODING 247
SWIDTH 480 0
DWIDTH 5 0
BBX 5 11 0 -2
BITMAP
00
00
40
40
00
F0
00
40
40
00
00
ENDCHAR
STARTCHAR 0x00F8
ENCODING 248
SWIDTH 480 0
DWIDTH 5 0
BBX 5 11 0 -2
BITMAP
00
00
00
10
60
90
F0
90
60
80
00
ENDCHAR
STARTCHAR 0x00F9
ENCODING 249
SWIDTH 480 0
DWIDTH 5 0
BBX 5 11 0 -2
BITMAP
40
20
00
00
90
90
90
90
70
00
00
ENDCHAR
STARTCHAR 0x00FA
ENCODING 250
SWIDTH 480 0
DWIDTH 5 0
BBX 5 11 0 -2
BITMAP
20
40
00
00
90
90
90
90
70
00
00
ENDCHAR
STARTCHAR 0x00FB
ENCODING 251
SWIDTH 480 0
DWIDTH 5 0
BBX 5 11 0 -2
BITMAP
60
90
00
00
90
90
90
90
70
00
00
ENDCHAR
STARTCHAR 0x00FC
ENCODING 252
SWIDTH 480 0
DWIDTH 5 0
BBX 5 11 0 -2
BITMAP
50
50
00
00
90
90
90
90
70
00
00
ENDCHAR
STARTCHAR 0x00FD
ENCODING 253
SWIDTH 480 0
DWIDTH 5 0
BBX 5 11 0 -2
BITMAP
20
40
00
00
90
90
90
90
70
10
60
ENDCHAR
STARTCHAR 0x00FE
ENCODING 254
SWIDTH 480 0
DWIDTH 5 0
BBX 5 11 0 -2
BITMAP
00
00
80
80
E0
90
90
90
E0
80
80
ENDCHAR
STARTCHAR 0x00FF
ENCODING 255
SWIDTH 480 0
DWIDTH 5 0
BBX 5 11 0 -2
BITMAP
50
50
00
00
90
90
90
90
70
10
60
ENDCHAR
ENDFONT
